<mxfile host="app.diagrams.net" agent="Mozilla/5.0 (Windows NT 10.0; Win64; x64) AppleWebKit/537.36 (KHTML, like Gecko) Chrome/127.0.0.0 Safari/537.36 OPR/113.0.0.0" version="24.8.3">
  <diagram name="Página-1" id="b1SmGUgnCCk4op67HP9U">
    <mxGraphModel dx="433" dy="241" grid="1" gridSize="10" guides="1" tooltips="1" connect="1" arrows="1" fold="1" page="1" pageScale="1" pageWidth="827" pageHeight="1169" math="0" shadow="0">
      <root>
        <mxCell id="0" />
        <mxCell id="1" parent="0" />
        <mxCell id="S2G4zOQfxBNZQEEFAaK3-1" value="INÍCIO" style="ellipse;whiteSpace=wrap;html=1;" vertex="1" parent="1">
          <mxGeometry x="40" y="40" width="130" height="80" as="geometry" />
        </mxCell>
        <mxCell id="S2G4zOQfxBNZQEEFAaK3-2" value="" style="shape=flexArrow;endArrow=classic;html=1;rounded=0;exitX=1;exitY=0.5;exitDx=0;exitDy=0;" edge="1" parent="1" source="S2G4zOQfxBNZQEEFAaK3-1" target="S2G4zOQfxBNZQEEFAaK3-3">
          <mxGeometry width="50" height="50" relative="1" as="geometry">
            <mxPoint x="390" y="430" as="sourcePoint" />
            <mxPoint x="290" y="80" as="targetPoint" />
          </mxGeometry>
        </mxCell>
        <mxCell id="S2G4zOQfxBNZQEEFAaK3-3" value="INFORMAR ATIVO" style="rounded=0;whiteSpace=wrap;html=1;" vertex="1" parent="1">
          <mxGeometry x="230" y="50" width="120" height="60" as="geometry" />
        </mxCell>
        <mxCell id="S2G4zOQfxBNZQEEFAaK3-4" value="" style="shape=flexArrow;endArrow=classic;html=1;rounded=0;exitX=1;exitY=0.514;exitDx=0;exitDy=0;exitPerimeter=0;entryX=0.001;entryY=0.69;entryDx=0;entryDy=0;entryPerimeter=0;" edge="1" parent="1" source="S2G4zOQfxBNZQEEFAaK3-3" target="S2G4zOQfxBNZQEEFAaK3-7">
          <mxGeometry width="50" height="50" relative="1" as="geometry">
            <mxPoint x="400" y="110" as="sourcePoint" />
            <mxPoint x="450" y="80" as="targetPoint" />
          </mxGeometry>
        </mxCell>
        <mxCell id="S2G4zOQfxBNZQEEFAaK3-5" value="INPUT" style="swimlane;fontStyle=0;childLayout=stackLayout;horizontal=1;startSize=30;horizontalStack=0;resizeParent=1;resizeParentMax=0;resizeLast=0;collapsible=1;marginBottom=0;whiteSpace=wrap;html=1;" vertex="1" parent="1">
          <mxGeometry x="380" width="220" height="180" as="geometry" />
        </mxCell>
        <mxCell id="S2G4zOQfxBNZQEEFAaK3-6" value="LOCAL DE ORIGEM(OBRIGATÓRIO)" style="text;strokeColor=none;fillColor=none;align=left;verticalAlign=middle;spacingLeft=4;spacingRight=4;overflow=hidden;points=[[0,0.5],[1,0.5]];portConstraint=eastwest;rotatable=0;whiteSpace=wrap;html=1;" vertex="1" parent="S2G4zOQfxBNZQEEFAaK3-5">
          <mxGeometry y="30" width="220" height="30" as="geometry" />
        </mxCell>
        <mxCell id="S2G4zOQfxBNZQEEFAaK3-7" value="LOCAL DE DESTINO(OBRIGATÓRIO)" style="text;strokeColor=none;fillColor=none;align=left;verticalAlign=middle;spacingLeft=4;spacingRight=4;overflow=hidden;points=[[0,0.5],[1,0.5]];portConstraint=eastwest;rotatable=0;whiteSpace=wrap;html=1;" vertex="1" parent="S2G4zOQfxBNZQEEFAaK3-5">
          <mxGeometry y="60" width="220" height="30" as="geometry" />
        </mxCell>
        <mxCell id="S2G4zOQfxBNZQEEFAaK3-8" value="QUANTIDADE(OBRIGATÓRIO)" style="text;strokeColor=none;fillColor=none;align=left;verticalAlign=middle;spacingLeft=4;spacingRight=4;overflow=hidden;points=[[0,0.5],[1,0.5]];portConstraint=eastwest;rotatable=0;whiteSpace=wrap;html=1;" vertex="1" parent="S2G4zOQfxBNZQEEFAaK3-5">
          <mxGeometry y="90" width="220" height="30" as="geometry" />
        </mxCell>
        <mxCell id="S2G4zOQfxBNZQEEFAaK3-9" value="USUÁRIO QUE REALIZOU A MOVIMENTAÇÃO(OBRIGATÓRIO)" style="text;strokeColor=none;fillColor=none;align=left;verticalAlign=middle;spacingLeft=4;spacingRight=4;overflow=hidden;points=[[0,0.5],[1,0.5]];portConstraint=eastwest;rotatable=0;whiteSpace=wrap;html=1;" vertex="1" parent="S2G4zOQfxBNZQEEFAaK3-5">
          <mxGeometry y="120" width="220" height="30" as="geometry" />
        </mxCell>
        <mxCell id="S2G4zOQfxBNZQEEFAaK3-10" value="DATA E HORA(OBRIGATÓRIA)" style="text;strokeColor=none;fillColor=none;align=left;verticalAlign=middle;spacingLeft=4;spacingRight=4;overflow=hidden;points=[[0,0.5],[1,0.5]];portConstraint=eastwest;rotatable=0;whiteSpace=wrap;html=1;" vertex="1" parent="S2G4zOQfxBNZQEEFAaK3-5">
          <mxGeometry y="150" width="220" height="30" as="geometry" />
        </mxCell>
        <mxCell id="S2G4zOQfxBNZQEEFAaK3-11" value="" style="shape=flexArrow;endArrow=classic;html=1;rounded=0;exitX=1.001;exitY=0.542;exitDx=0;exitDy=0;exitPerimeter=0;" edge="1" parent="1" source="S2G4zOQfxBNZQEEFAaK3-7" target="S2G4zOQfxBNZQEEFAaK3-13">
          <mxGeometry width="50" height="50" relative="1" as="geometry">
            <mxPoint x="620" y="90" as="sourcePoint" />
            <mxPoint x="680" y="76" as="targetPoint" />
          </mxGeometry>
        </mxCell>
        <mxCell id="S2G4zOQfxBNZQEEFAaK3-13" value="SALVAR" style="rounded=0;whiteSpace=wrap;html=1;" vertex="1" parent="1">
          <mxGeometry x="650" y="45.00000000000003" width="120" height="60" as="geometry" />
        </mxCell>
        <mxCell id="S2G4zOQfxBNZQEEFAaK3-14" value="" style="shape=flexArrow;endArrow=classic;html=1;rounded=0;exitX=0.626;exitY=1.009;exitDx=0;exitDy=0;exitPerimeter=0;entryX=0.501;entryY=0.007;entryDx=0;entryDy=0;entryPerimeter=0;" edge="1" parent="1" source="S2G4zOQfxBNZQEEFAaK3-13" target="S2G4zOQfxBNZQEEFAaK3-15">
          <mxGeometry width="50" height="50" relative="1" as="geometry">
            <mxPoint x="610" y="110" as="sourcePoint" />
            <mxPoint x="730" y="180.40322580645162" as="targetPoint" />
          </mxGeometry>
        </mxCell>
        <mxCell id="S2G4zOQfxBNZQEEFAaK3-15" value="&lt;font style=&quot;font-size: 9px;&quot;&gt;VALIDAÇÃO DE CAMPOS&lt;/font&gt;" style="rhombus;whiteSpace=wrap;html=1;" vertex="1" parent="1">
          <mxGeometry x="680" y="140.4" width="90" height="89.6" as="geometry" />
        </mxCell>
        <mxCell id="S2G4zOQfxBNZQEEFAaK3-16" value="" style="shape=flexArrow;endArrow=classic;html=1;rounded=0;exitX=0.5;exitY=1.006;exitDx=0;exitDy=0;exitPerimeter=0;" edge="1" parent="1" source="S2G4zOQfxBNZQEEFAaK3-15" target="S2G4zOQfxBNZQEEFAaK3-17">
          <mxGeometry width="50" height="50" relative="1" as="geometry">
            <mxPoint x="680" y="210" as="sourcePoint" />
            <mxPoint x="725" y="321.61290322580646" as="targetPoint" />
          </mxGeometry>
        </mxCell>
        <mxCell id="S2G4zOQfxBNZQEEFAaK3-17" value="SALVAR MOVIMENTAÇÃO" style="rounded=0;whiteSpace=wrap;html=1;" vertex="1" parent="1">
          <mxGeometry x="665" y="291.61290322580646" width="120" height="60" as="geometry" />
        </mxCell>
        <mxCell id="S2G4zOQfxBNZQEEFAaK3-18" value="" style="shape=flexArrow;endArrow=classic;html=1;rounded=0;exitX=0.997;exitY=0.51;exitDx=0;exitDy=0;exitPerimeter=0;" edge="1" parent="1" source="S2G4zOQfxBNZQEEFAaK3-15" target="S2G4zOQfxBNZQEEFAaK3-19">
          <mxGeometry width="50" height="50" relative="1" as="geometry">
            <mxPoint x="785" y="190.4" as="sourcePoint" />
            <mxPoint x="830" y="185" as="targetPoint" />
          </mxGeometry>
        </mxCell>
        <mxCell id="S2G4zOQfxBNZQEEFAaK3-19" value="INFORMAR QUE DEVE SE PREENCHER OS CAMPOS" style="rounded=0;whiteSpace=wrap;html=1;" vertex="1" parent="1">
          <mxGeometry x="827" y="155.2" width="170" height="60" as="geometry" />
        </mxCell>
        <mxCell id="S2G4zOQfxBNZQEEFAaK3-20" value="NÃO" style="text;strokeColor=none;align=center;fillColor=none;html=1;verticalAlign=middle;whiteSpace=wrap;rounded=0;" vertex="1" parent="1">
          <mxGeometry x="760" y="155.2" width="60" height="30" as="geometry" />
        </mxCell>
        <mxCell id="S2G4zOQfxBNZQEEFAaK3-22" value="SIM" style="text;strokeColor=none;align=center;fillColor=none;html=1;verticalAlign=middle;whiteSpace=wrap;rounded=0;" vertex="1" parent="1">
          <mxGeometry x="720" y="240" width="60" height="30" as="geometry" />
        </mxCell>
        <mxCell id="S2G4zOQfxBNZQEEFAaK3-23" value="" style="shape=flexArrow;endArrow=classic;html=1;rounded=0;exitX=0.013;exitY=0.501;exitDx=0;exitDy=0;exitPerimeter=0;" edge="1" parent="1" source="S2G4zOQfxBNZQEEFAaK3-17" target="S2G4zOQfxBNZQEEFAaK3-24">
          <mxGeometry width="50" height="50" relative="1" as="geometry">
            <mxPoint x="540" y="280" as="sourcePoint" />
            <mxPoint x="580" y="320" as="targetPoint" />
          </mxGeometry>
        </mxCell>
        <mxCell id="S2G4zOQfxBNZQEEFAaK3-24" value="INFORMAÇÕES QUE AS MUDANÇAS FORAM SALVAS" style="rounded=0;whiteSpace=wrap;html=1;" vertex="1" parent="1">
          <mxGeometry x="480" y="291.61" width="130" height="60" as="geometry" />
        </mxCell>
      </root>
    </mxGraphModel>
  </diagram>
</mxfile>
